<?xml version="1.0" encoding="UTF-8"?>
<svg xmlns="http://www.w3.org/2000/svg" version="1.1" viewBox="0 0 1367.2 358.3">
  <defs>
    <style>
      .cls-1 {
        fill: #0097b2;
      }
    </style>
  </defs>
  <!-- Generator: Adobe Illustrator 28.7.5, SVG Export Plug-In . SVG Version: 1.2.0 Build 176)  -->
  <g>
    <g id="Layer_2">
      <g id="Landscape">
        <g>
          <polygon class="cls-1" points="1176.1 219.5 1132.7 219.5 1132.7 140.1 1120.7 140.1 1120.7 135.7 1077.2 135.7 1077.2 80.2 1075.6 80.2 1075.6 84 1070 84 1070 80.2 1068.4 80.2 1068.4 84 1062.8 84 1062.8 80.2 1061.2 80.2 1061.2 84 1055.7 84 1055.7 80.2 1054 80.2 1054 84 1048.5 84 1048.5 80.2 1046.8 80.2 1046.8 84 1041.3 84 1041.3 80.2 1039.6 80.2 1039.6 84 1034.1 84 1034.1 80.2 1032.4 80.2 1032.4 84 1026.9 84 1026.9 80.2 1025.2 80.2 1025.2 283 1022 283 1022 285.1 1022.7 285.1 1022.7 285.7 1022.7 288.8 1022 288.8 1022 289.8 1022.7 289.8 1022.7 292.8 1022 292.8 1022 294.9 1022.7 294.9 1022.7 295.5 1022.7 298.5 1022 298.5 1022 299.6 1022.7 299.6 1022.7 302.6 1022 302.6 1022 304.7 1022.7 304.7 1022.7 305.3 1022.7 308.3 1022 308.3 1022 309.3 1022.7 309.3 1022.7 312.4 1022 312.4 1022 314.5 1022.7 314.5 1022.7 315.1 1022.7 318.1 1022 318.1 1022 319.1 1022.7 319.1 1022.7 322.2 1022 322.2 1022 324.2 1022.7 324.2 1022.7 324.8 1022.7 327.9 1022 327.9 1022 328.9 1022.7 328.9 1022.7 330.4 1008.9 330.4 1008.9 333.3 1008.9 335.2 1008.9 337.4 1008.9 339.3 1008.9 341.4 1008.9 343.3 1008.9 345.5 1008.9 347.4 1008.9 349.5 1008.9 351.4 1008.9 353.6 1008.9 355.5 1008.9 358.2 1022 358.2 1058.6 358.2 1063.3 358.2 1069.7 358.2 1076.7 358.2 1079.8 358.2 1082.7 358.2 1083.6 358.2 1086.8 358.2 1090.6 358.2 1093.4 358.2 1093.8 358.2 1096 358.2 1097.6 358.2 1098.9 358.2 1100.8 358.2 1104.5 358.2 1107.7 358.2 1111.5 358.2 1114.7 358.2 1121.7 358.2 1123.4 358.2 1128.1 358.2 1129.8 358.2 1132.7 358.2 1154.3 358.2 1160.7 358.2 1185.2 358.2 1188.1 358.2 1188.1 235.7 1188.1 226.1 1176.1 226.1 1176.1 219.5"/>
          <polygon class="cls-1" points="982.9 128.4 961.7 128.4 961.7 124.3 961.7 123.1 961.7 117.4 961.7 116.2 961.7 110.5 961.7 109.3 961.7 103.7 961.7 102.5 961.7 96.8 961.7 95.6 961.7 92.2 963.4 92.2 963.4 90.6 964.2 90.6 964.2 88.9 961.3 88.9 961.3 85.2 953.9 85.2 953.9 85.2 961.3 85.2 961.3 84.3 960.7 84.3 960.7 79.7 960.7 78.7 960.1 78.7 960.1 77.5 959.9 77.5 959.9 76.2 959.3 76.2 959.3 58.8 959.7 58.8 959.7 57.6 960.1 57.6 960.1 56.3 959.7 56.3 959.7 55.1 960.1 55.1 960.1 53.9 959.1 53.9 959.1 52.6 958.8 52.6 958.8 50.1 959.1 50.1 959.1 48.8 958.4 48.8 958.4 45.6 956.8 45.6 956.8 48.8 956.1 48.8 956.1 50.1 956.4 50.1 956.4 52.6 956.1 52.6 956.1 53.9 955.2 53.9 955.2 54.2 949.2 41.6 949.2 41.6 949.2 41.2 949.5 41.2 949.5 40.7 949 40.7 949 40.1 949 39.9 948.9 39.9 948.9 39.1 948.9 39 948.8 39 948.8 38.7 948.8 38.7 948.8 38.5 948.7 38.5 948.7 32 948.8 32 948.8 31.7 948.8 31.7 948.8 31.5 948.8 31.5 948.8 31.3 948.8 31.3 948.8 31.1 948.7 31.1 948.7 30.9 948.6 30.9 948.6 30.4 948.7 30.4 948.7 30.2 948.5 30.2 948.5 29.7 948.3 29.7 948.3 30.2 948.1 30.2 948.1 30.4 948.2 30.4 948.2 30.9 948.1 30.9 948.1 31.1 948 31.1 948 31.2 946.9 29 946.9 29 946.9 28.9 947 28.9 947 28.8 946.6 28.8 946.6 16.8 946.3 16.8 946.3 28.8 945.9 28.8 945.9 28.9 946 28.9 946 29 946 29 944.9 31.2 944.9 31.1 944.8 31.1 944.8 30.9 944.7 30.9 944.7 30.4 944.8 30.4 944.8 30.2 944.7 30.2 944.7 29.7 944.4 29.7 944.4 30.2 944.2 30.2 944.2 30.4 944.3 30.4 944.3 30.9 944.2 30.9 944.2 31.1 944.1 31.1 944.1 31.3 944.1 31.3 944.1 31.5 944.1 31.5 944.1 31.7 944.1 31.7 944.1 32 944.2 32 944.2 38.5 944.1 38.5 944.1 38.7 944.1 38.7 944.1 39 944 39 944 39.1 944 39.9 943.9 39.9 943.9 40.1 943.9 40.7 943.4 40.7 943.4 41.2 943.8 41.2 943.8 41.6 943.7 41.6 937.7 54.2 937.7 53.9 936.8 53.9 936.8 52.6 936.5 52.6 936.5 50.1 936.8 50.1 936.8 48.8 936.1 48.8 936.1 45.6 934.5 45.6 934.5 48.8 933.8 48.8 933.8 50.1 934.1 50.1 934.1 52.6 933.8 52.6 933.8 53.9 932.8 53.9 932.8 55.1 933.2 55.1 933.2 56.3 932.8 56.3 932.8 57.6 933.2 57.6 933.2 58.8 933.6 58.8 933.6 76.2 933 76.2 933 77.5 932.8 77.5 932.8 78.7 932.2 78.7 932.2 79.7 932.2 84.3 931.6 84.3 931.6 85.2 939 85.2 939 85.2 931.6 85.2 931.6 88.9 928.8 88.9 928.8 90.6 929.5 90.6 929.5 92.2 931.3 92.2 931.3 95.6 931.3 96.8 931.3 102.5 931.3 103.7 931.3 109.3 931.3 110.5 931.3 116.2 931.3 117.4 931.3 123.1 931.3 124.3 931.3 128.4 910 128.4 900.3 140.8 897.1 140.8 897.1 141.8 898.1 141.8 898.1 142.8 898.1 143.8 898.7 143.8 898.7 144.8 899.4 144.8 899.4 146 899.7 146 899.7 147.2 900.5 147.2 900.5 188.3 897.1 188.3 897.1 189.6 898.1 189.6 898.1 191 898.1 192.3 898.7 192.3 898.7 193.6 900.5 193.6 900.5 207.3 897.1 207.3 897.1 208.6 898.1 208.6 898.1 210 898.1 211.3 898.7 211.3 898.7 212.6 900.5 212.6 900.5 317.5 897.1 317.5 897.1 318.8 898.1 318.8 898.1 320.1 898.1 321.4 898.7 321.4 898.7 322.8 900.5 322.8 900.5 323.5 900.5 323.9 900.5 327 900.5 327.4 900.5 330.5 900.5 330.9 900.5 334 900.5 334.4 900.5 337.5 900.5 337.9 900.5 340.9 900.5 341.4 900.5 344.4 900.5 344.9 900.5 347.9 900.5 348.4 900.5 351.4 900.5 351.9 900.5 352.9 898.7 352.9 898.7 354.2 898.1 354.2 898.1 355.6 898.1 356.9 897.1 356.9 897.1 358.2 995.8 358.2 995.8 356.9 994.8 356.9 994.8 355.6 994.8 354.2 994.3 354.2 994.3 352.9 992.5 352.9 992.5 351.9 992.5 351.4 992.5 348.4 992.5 347.9 992.5 344.9 992.5 344.4 992.5 341.4 992.5 340.9 992.5 337.9 992.5 337.5 992.5 334.4 992.5 334 992.5 330.9 992.5 330.5 992.5 327.4 992.5 327 992.5 323.9 992.5 323.5 992.5 322.8 994.3 322.8 994.3 321.4 994.8 321.4 994.8 320.1 994.8 318.8 995.8 318.8 995.8 317.5 992.5 317.5 992.5 212.6 994.3 212.6 994.3 211.3 994.8 211.3 994.8 210 994.8 208.6 995.8 208.6 995.8 207.3 992.5 207.3 992.5 193.6 994.3 193.6 994.3 192.3 994.8 192.3 994.8 191 994.8 189.6 995.8 189.6 995.8 188.3 992.5 188.3 992.5 147.2 993.2 147.2 993.2 146 993.5 146 993.5 144.8 994.3 144.8 994.3 143.8 994.8 143.8 994.8 142.8 994.8 141.8 995.8 141.8 995.8 140.8 992.7 140.8 982.9 128.4"/>
          <path class="cls-1" d="M1366.4,285v-1h-1v-6.1h-.8v-1.3h-.3v-1.3h-.8v-41h.6v-1.3h.5v-1.3h-.5v-1.3h.5v-1.3h-1.1v-7.3h.6v-1.3h.5v-1.3h-3.8v-5.3h.5v-1.2h.4v-1.2h-4.3v-5.5h1v-1.2h.8v-1.2h-1.9c0-2.8-2.5-6.2-4.1-7.2-1.6-1-2.5-6.3-2.5-6.3h1.1v-1.2h.4v-1.2h-2.3c0-1.5-1.1-3.2-1.8-3.7-.7-.5-1.1-3.2-1.1-3.2h1.2v-1.2h.2v-1.2h-1.8c0-1.3-.4-2.9-.8-3.3-.3-.5-.5-2.9-.5-2.9h.3v-1.2h0v-1.2h-1.2v-7h-.7v7h-1.2v1.2h0v1.2h.3s-.2,2.5-.5,2.9c-.3.5-.7,2-.7,3.3h-1.8v1.2h.2v1.2h1.2s-.4,2.8-1.1,3.2c-.7.5-1.8,2.2-1.8,3.7h-2.3v1.2h.4v1.2h1.1s-.9,5.3-2.5,6.3c-1.6,1-4.1,4.4-4.1,7.2h-1.9v1.2h.8v1.2h1v5.5h-4.3v1.2h.4v1.2h.5v5.3h-3.8v1.3h.5v1.3h.6v4.6h-.7l-42.4-18v-8.2h5.2v-1.7h-5.2v-5.2h-1.7v5.2h-5.2v1.7h5.2v8.2l-42.4,18h-.7v-4.6h.6v-1.3h.5v-1.3h-3.8v-5.3h.5v-1.2h.4v-1.2h-4.3v-5.5h1v-1.2h.8v-1.2h-1.9c0-2.8-2.5-6.2-4.1-7.2-1.6-1-2.5-6.3-2.5-6.3h1.1v-1.2h.4v-1.2h-2.3c0-1.5-1.1-3.2-1.8-3.7-.7-.5-1.1-3.2-1.1-3.2h1.2v-1.2h.2v-1.2h-1.8c0-1.3-.4-2.9-.8-3.3-.3-.5-.5-2.9-.5-2.9h.3v-1.2h0v-1.2h-1.2v-7h-.7v7h-1.2v1.2h0v1.2h.3s-.2,2.5-.5,2.9c-.3.5-.8,2-.8,3.3h-1.8v1.2h.2v1.2h1.2s-.4,2.8-1.1,3.2c-.7.5-1.8,2.2-1.8,3.7h-2.3v1.2h.4v1.2h1.1s-.9,5.3-2.5,6.3c-1.6,1-4.1,4.4-4.1,7.2h-1.9v1.2h.8v1.2h1v5.5h-4.3v1.2h.4v1.2h.5v5.3h-3.8v1.3h.5v1.3h.6v7.3h-1v1.3h.5v1.3h-.5v1.3h.5v1.3h.6v41h-.8v1.3h-.3v1.3h-.8v6.1h-1v5h-.8v1h.8v1h1.2v1.3h.6v1.3h.6v6h-1.2v1.3h.6v1.3h.6v41h-1.5v1.4h1.8v1.4h-1.8v12.1h167.7v-12.1h-1.8v-1.4h1.8v-1.4h-1.5v-41h.6v-1.3h.6v-1.3h-1.2v-6h.6v-1.3h.6v-1.3h1.2v-1h.8v-1h-.8v-4.1h0,0Z"/>
          <path class="cls-1" d="M888.3,168.2h-17.3v-6h3.5v-10.8h-2.8v-11.9h-44.5v-57.8h-6.6v-7.7h-22.1v-2.7h-3.8v2.7h-12.8v-2.7h-3.8v2.7h-22.1v7.7h-6.6v144.4l-8.3,3.4v-56.2h-47.4v-98h-82.7v159.4c-6.1-3.3-12.8-5.6-19.8-6.8v-90.7h-15.8v14.6h-132.5v-22.5h1.4v-2.7h1.5v-2.7h-53.4v2.7h1.5v2.7h1.4v14.7h-14.2v-14.7h.8v-2.7h1.1v-2.7h-14.4v2.7h1.1v2.7h.8v149c-4.9,1.7-9.3,3.7-12.9,6.1v-148.8l-11.6-22.1h-4.9v-30.5h-3.8v30.5h-27.2v-30.5h-3.8v30.5h-4.9l-11.6,22.1v98.5l-5.2.3v-27.1h-7.8v-10.9h-75.8v10.9h-7.8v45.6h-22.7v105.2h718.2v-22.7h-.2v-167.3h0s0,0,0,0ZM749.3,229h0l-4.5,1.9h0l4.5-1.9ZM746.3,232.3h0l-1.3.5h-.1s-.6.3-.6.3h-.1s-1.3.6-1.3.6h0l3.4-1.4h0ZM749.1,231.1h0l-.9.4h-.2c0,0,1.1-.4,1.1-.4ZM747.7,231.7h0l-1,.4h-.1s1.2-.4,1.2-.4ZM742,234h0l-.6.3h-.2c0,0,.8-.2.8-.2h0ZM743.9,231.3h0l-2.1.9h0l2.1-.9ZM741.2,232.4h.2c0,0-.4,0-.4,0h.2ZM193.1,254.4v3.8h-5.9v-3.8h5.9ZM171.3,254.4h15v3.8h-15v-3.8Z"/>
          <path class="cls-1" d="M122,293v-17.2h.8v-3.9l-10.3-12h0l-10.3,12v3.9h.8v70.7h-.8v11.6h20.6v-11.6h-.8v-20.8s4.1-11.1,11.9-11.1,12.2,11.1,12.2,11.1v20.8h-.7v11.6h16.8v-11.6h-.7v-27h.7v-3.9h-10l-30.2-22.7s0,0,0,0Z"/>
          <path class="cls-1" d="M63.6,259.9l-10.3,12v3.9h.8v17.2l-30.2,22.7h-10v3.9h.7v27h-.7v11.6h16.8v-11.6h-.7v-20.8s4.5-11.1,12.2-11.1,11.9,11.1,11.9,11.1v20.8h-.8v11.6h20.6v-11.6h-.8v-70.7h.8v-3.9l-10.3-12h0Z"/>
        </g>
      </g>
    </g>
  </g>
</svg>